<?xml version="1.0" standalone="yes"?>
<svg width="491" height="508">
<path style="fill:#000000; stroke:none;" d="M0 0L0 508L491 508L491 0L0 0z"/>
<path style="fill:#717177; stroke:none;" d="M106.667 14.3333L107.333 14.6667L106.667 14.3333z"/>
<path style="fill:#27282d; stroke:none;" d="M64 37L61 41L59 46L60 52L59 52L59 50L58 50L60 72L59 76L62 86L65 86L64 89C67.2209 89 67.3557 92.243 67 95L74 106L81 116L85 117L94 131L109.09 146.7L129 166L131 165C134.573 173.911 146.269 181.066 153.49 187.17C155.908 189.214 158.929 194.214 162.675 193.248C167.507 192.003 173.342 180.744 176.718 177.039C186.237 166.596 201.496 156.042 216 156L216 155L214 155L214 154L253 152L253 153L250 153L250 154L265 155C264.868 139.272 258.218 122.58 250.767 109.001C247.732 103.47 244.422 96.4539 239 93L240 91L235 88C234.33 83.6524 230.944 79.942 227 78L232 92L233 94L237 104L235 104L237 110L231 105L228 117L227 117L227 113L226 113L226 117L225 117L222 114L221 117L217 117L217 112L216 112L215 118C211.217 116.021 208.402 117.889 205 120L203 124C202.865 120.808 202.192 120.135 199 120L200 123L192 124L191 121L190 121L189 124L183 119L183 122L187 122L187 123L181 124L181 120L180 120L179 124L175 120L174 120L174 123L170 122L171 120L168 119L167 122L161 119L164 117L169 113L170 113L174 104L175 107L178 102L186 96L189 91L189 87C193.012 86.7118 195.792 85.2166 196 81L199 77L200 77L202 80L201 75L204 76L204 68L205 68L208 73C207.317 68.6937 210.139 63.0623 208.648 59.2091C206.539 53.7592 191.512 43.4612 186 43C182.196 36.7765 166.219 27.9506 159 28L154 26L145 20C135.997 19.8966 127.07 15.1037 118 14.1729C95.4283 11.8563 79.5228 22.8083 64 37z"/>
<path style="fill:#aeaeae; stroke:none;" d="M89 18L90 19L89 18z"/>
<path style="fill:#a6a6b3; stroke:none;" d="M84 20L85 21L84 20z"/>
<path style="fill:#adadad; stroke:none;" d="M82 21L83 22L82 21z"/>
<path style="fill:#b6b6b6; stroke:none;" d="M156 25L157 26L156 25z"/>
<path style="fill:#adadb6; stroke:none;" d="M74 26L75 27L74 26z"/>
<path style="fill:#808080; stroke:none;" d="M167 30L168 31L167 30z"/>
<path style="fill:#818184; stroke:none;" d="M68 32L69 33L68 32z"/>
<path style="fill:#aaaaaa; stroke:none;" d="M170 32L171 33L170 32z"/>
<path style="fill:#606163; stroke:none;" d="M66.3333 34.6667L66.6667 35.3333L66.3333 34.6667z"/>
<path style="fill:#aaaaaa; stroke:none;" d="M174 34L175 35L174 34z"/>
<path style="fill:#7b7b84; stroke:none;" d="M179 37L180 38L179 37z"/>
<path style="fill:#626265; stroke:none;" d="M63 38L63 41L64 41L65 38L63 38z"/>
<path style="fill:#9f9fbf; stroke:none;" d="M181 38L182 39L181 38z"/>
<path style="fill:#aaaaaa; stroke:none;" d="M184 40L185 41L184 40z"/>
<path style="fill:#818085; stroke:none;" d="M60.3333 45.6667L60.6667 46.3333L60.3333 45.6667z"/>
<path style="fill:#808080; stroke:none;" d="M192 45L193 46L192 45z"/>
<path style="fill:#65666a; stroke:none;" d="M58 49L59 52L60 52L60 49L58 49z"/>
<path style="fill:#afafaf; stroke:none;" d="M197 49L198 50L197 49z"/>
<path style="fill:#616266; stroke:none;" d="M58 53L57 69C60.4441 65.9904 59.674 56.9894 58 53z"/>
<path style="fill:#86868d; stroke:none;" d="M206 56L207 57L206 56z"/>
<path style="fill:#3b3b3d; stroke:none;" d="M57 57L57 66L58 66L57 57z"/>
<path style="fill:#27282d; stroke:none;" d="M395 65C384.769 63.7996 367.264 77.805 362 86C356.441 86.9511 352.081 93.0158 347.829 96.6798C336.081 106.806 315.101 122.996 310 138L308 137L287 166C316.086 190.809 324.936 216.805 322 254L323 254L327 245C326.442 241.463 326.04 231.511 330 231L330 230L328 217L329 220L330 220L327 216L328 214L325 214L325 213L328 211L325 212L327 209L326 205L330 206L329 202L325 203L325 201L323 201L322 204L321 204L320 200L325 199L323 197L325 194L318 190L325 190L325 193L330 193L330 192L330 189L329 185C324.227 183.966 318.389 183.29 317 178L318 178L319 181L320 181L319 176L324 177L324 178L322 180L333 175L330 180L339 180L340 183L342 181L353 190L355 190L355 178L354 178L352 180L353 177L348 179L352 175L352 174L351 172L349 173L348 173L351 171L348 166L354 166L355 170C359.123 169.175 370.756 177.311 368 178L368 179L374 178L374 182L380 184L379 187L394 194C396.668 202.836 414.994 215.096 424 216L438 194C444.23 190.422 447.16 181.167 450.241 175C460.072 155.323 467.428 133.299 465.94 111C465.434 103.427 464.465 88.0268 457 84C456.708 78.8474 452.636 74.0343 448 72C450.535 64.3947 430.348 61.6082 431 59C420.664 57.6937 401.95 54.9744 395 65z"/>
<path style="fill:#0c0d11; stroke:none;" d="M209 60L208 73L205 68L204 68L204 76L201 75L202 80L200 77L199 77L196 81C195.498 84.7654 192.59 86.3944 189 87L189 91L186 96L178 102L175 107L175 104L174 104L170 113L169 113L168 111L167 111L164 117L161 119L167 122L168 119L171 120L170 122C172.711 122.577 173.395 122.767 174 120L175 120L179 124L180 120L181 120L181 124L187 123L187 122L183 122L183 119L189 124L190 121L191 121L192 124L200 123L199 120C201.973 120.266 202.798 121 203 124L206 123L205 120L215 118L216 112L217 112L217 117L221 117L222 114L225 117L226 117L226 113L227 113L227 117L228 117L231 105L237 110L235 104L237 104L233 94C235.334 92.9854 233.91 92.5789 232 92C232.38 79.6597 219.863 64.6952 209 60z"/>
<path style="fill:#666666; stroke:none;" d="M430 60L430 61L435 62L430 60z"/>
<path style="fill:#5f5f62; stroke:none;" d="M398.667 61.3333L399.333 61.6667L398.667 61.3333z"/>
<path style="fill:#ffffff; stroke:none;" d="M213 62L214 63L213 62z"/>
<path style="fill:#aaaaaa; stroke:none;" d="M215 64L216 65L215 64M441 64L442 65L441 64z"/>
<path style="fill:#808085; stroke:none;" d="M216 65L217 66L216 65z"/>
<path style="fill:#808585; stroke:none;" d="M442 65L443 66L442 65z"/>
<path style="fill:#66666b; stroke:none;" d="M217 66L218 67L217 66z"/>
<path style="fill:#808080; stroke:none;" d="M445 67L446 68L445 67z"/>
<path style="fill:#656565; stroke:none;" d="M220 69L221 70L220 69z"/>
<path style="fill:#828284; stroke:none;" d="M379.667 71.3333L380.333 71.6667L379.667 71.3333z"/>
<path style="fill:#66676b; stroke:none;" d="M59 72L58 75L59 72z"/>
<path style="fill:#808080; stroke:none;" d="M225 74L226 75L225 74z"/>
<path style="fill:#616267; stroke:none;" d="M60 76L59 78L61 78L60 76z"/>
<path style="fill:#848484; stroke:none;" d="M454 77L455 78L454 77z"/>
<path style="fill:#b1b1b1; stroke:none;" d="M229 79L230 80L229 79z"/>
<path style="fill:#646466; stroke:none;" d="M60.6667 80.3333L61.3333 80.6667L60.6667 80.3333z"/>
<path style="fill:#808080; stroke:none;" d="M456 80L457 81L456 80z"/>
<path style="fill:#626264; stroke:none;" d="M364 83L367 81L364 83z"/>
<path style="fill:#808080; stroke:none;" d="M232 82L233 83L232 82z"/>
<path style="fill:#676767; stroke:none;" d="M61.6667 83.3333L62.3333 83.6667L61.6667 83.3333z"/>
<path style="fill:#646368; stroke:none;" d="M362 83L361 86L362 83z"/>
<path style="fill:#5e5f63; stroke:none;" d="M63 86L63 88L65 86L63 86z"/>
<path style="fill:#8e8e8e; stroke:none;" d="M460 87L461 88L460 87z"/>
<path style="fill:#65666a; stroke:none;" d="M65 88L64 90L66 90L65 88z"/>
<path style="fill:#7c7c80; stroke:none;" d="M237 89L238 90L237 89z"/>
<path style="fill:#5b5c5e; stroke:none;" d="M66 90L67 94L66 90z"/>
<path style="fill:#616267; stroke:none;" d="M353 91L352 93L354 93L353 91z"/>
<path style="fill:#8b8b8b; stroke:none;" d="M351 93L352 94L351 93z"/>
<path style="fill:#616264; stroke:none;" d="M68 94L67 96L69 96L68 94z"/>
<path style="fill:#8e8e8e; stroke:none;" d="M463 95L464 96L463 95z"/>
<path style="fill:#aaaaaa; stroke:none;" d="M348 96L349 97L348 96z"/>
<path style="fill:#b9b9b9; stroke:none;" d="M68 97L69 98L68 97z"/>
<path style="fill:#828888; stroke:none;" d="M243 97L244 98L243 97z"/>
<path style="fill:#616267; stroke:none;" d="M71 101L75 105L71 101z"/>
<path style="fill:#808080; stroke:none;" d="M247 103L248 104L247 103z"/>
<path style="fill:#666666; stroke:none;" d="M465 105L465 108L466 108L465 105z"/>
<path style="fill:#636468; stroke:none;" d="M75.6667 107.333L76.3333 107.667L75.6667 107.333z"/>
<path style="fill:#aaaaaa; stroke:none;" d="M250 108L251 109L250 108z"/>
<path style="fill:#5e5d62; stroke:none;" d="M77 110L77 111L81 113L77 110z"/>
<path style="fill:#8c8c8c; stroke:none;" d="M251 110L252 111L251 110z"/>
<path style="fill:#6a6b6d; stroke:none;" d="M82.6667 116.333L83.3333 116.667L82.6667 116.333z"/>
<path style="fill:#828387; stroke:none;" d="M84 117L85 118L84 117z"/>
<path style="fill:#888888; stroke:none;" d="M319 125L320 126L319 125z"/>
<path style="fill:#646464; stroke:none;" d="M465 126L465 129L466 129L465 126z"/>
<path style="fill:#8e8e8e; stroke:none;" d="M91 127L92 128L91 127z"/>
<path style="fill:#5f5f5f; stroke:none;" d="M92 128L95 130L92 128z"/>
<path style="fill:#b1b1b1; stroke:none;" d="M95 131L96 132L95 131z"/>
<path style="fill:#bf9fbf; stroke:none;" d="M96 132L97 133L96 132z"/>
<path style="fill:#5e6163; stroke:none;" d="M261.333 134.667L261.667 135.333L261.333 134.667z"/>
<path style="fill:#b3b3b3; stroke:none;" d="M464.333 134.667L464.667 135.333L464.333 134.667z"/>
<path style="fill:#626265; stroke:none;" d="M262.333 137.667L262.667 138.333L262.333 137.667z"/>
<path style="fill:#ffffff; stroke:none;" d="M263 141L264 142L263 141z"/>
<path style="fill:#656567; stroke:none;" d="M263.333 142.667L263.667 143.333L263.333 142.667z"/>
<path style="fill:#767676; stroke:none;" d="M264.333 146.667L264.667 147.333L264.333 146.667z"/>
<path style="fill:#ffffff; stroke:none;" d="M460 150L461 151L460 150z"/>
<path style="fill:#5f5e63; stroke:none;" d="M114 151L119 156L114 151z"/>
<path style="fill:#626367; stroke:none;" d="M230 151L230 152L242 152L230 151z"/>
<path style="fill:#636468; stroke:none;" d="M223 152L223 153L230 153L223 152z"/>
<path style="fill:#0c0d11; stroke:none;" d="M160 261C152.314 242.133 156.352 218.836 165.27 201C168.761 194.019 175.385 188.1 178 181L179 181L179 187L180 187L181 182L182 182L182 185L183 185L189 179L186 175L189 172L190 172L190 175L191 175C192.089 171.573 193.44 170.863 197 171L197 167L198 167L201 169L200 165C204.101 164.028 210.041 159.993 213 164L214 164L217 160C216.931 164.032 219.156 164.647 222 162L218 160L227 157L228 161L230 160L231 163L241 159L241 161L246 156L251 157L251 158L248 158L248 159L253 159L253 163L254 163L254 159L256 162L259 161L260 164L261 164L264 160L264 163L266 161L267 161L269 162L267 164L276 165L284 170L282 175L286 176L287 172L288 172C290.398 175.084 301.652 182.211 299 186C304.56 190.197 308.775 198.172 310 205L316 210L317.829 252L302 290C308.841 284.692 312.502 275.78 315.843 268C327.787 240.183 322.369 206.746 303.856 183.06C277.292 149.073 223.697 142.115 189 167.375C167.434 183.075 154 209.297 154 236C154 242.008 153.154 258.997 160 261z"/>
<path style="fill:#5f6064; stroke:none;" d="M248 152L248 153L253 153L248 152z"/>
<path style="fill:#606166; stroke:none;" d="M218 153L218 154L223 154L218 153z"/>
<path style="fill:#5c5d62; stroke:none;" d="M255 153L255 154L263 155L255 153z"/>
<path style="fill:#5d5e60; stroke:none;" d="M265 153L263 155L263 156L268 157L265 153z"/>
<path style="fill:#808080; stroke:none;" d="M295 153L296 154L295 153z"/>
<path style="fill:#606165; stroke:none;" d="M214 154L214 155L218 155L214 154M205 157L205 158L210 157L205 157z"/>
<path style="fill:#1e2126; stroke:none;" d="M246 156L241 161L241 159L231 163L230 160L228 161L227 157L218 160L222 162C218.96 163.423 217.883 163.366 217 160L214 164L213 164L213 161L200 165L201 169L198 167L197 167L197 171C193.207 170.277 191.669 171.145 191 175L190 175L190 172L189 172L186 175L189 179L183 185L182 185L182 182L181 182L181 190L186 191L187 191C196.675 178.599 213.274 169.82 229.06 168.218C234.209 167.695 253.249 171.095 256 168L276 176L282 179C283.652 185.443 294.178 196.125 301 196L309 209L310 207L311 207L311 212L312 212L313 210L318 222L316 210L310 205C309.572 198.334 305.103 189.051 299 186L301 184L288 172L287 172L286 176L282 175L284 170L276 165L267 164L269 162L264 163L264 160L261 164L260 164L259 161L256 162C256.575 159.604 256.475 159.513 254 159L254 163L253 163L253 159L248 159L248 158L251 158L246 156z"/>
<path style="fill:#373739; stroke:none;" d="M267 157L267 158L272 159L267 157z"/>
<path style="fill:#605f64; stroke:none;" d="M272 157C273.997 162.83 284.508 166.803 290 169L272 157z"/>
<path style="fill:#808080; stroke:none;" d="M457 157L458 158L457 157z"/>
<path style="fill:#828388; stroke:none;" d="M201 159L201 160L205 159L201 159z"/>
<path style="fill:#626263; stroke:none;" d="M122 159L128 163L128 162L122 159z"/>
<path style="fill:#7f8084; stroke:none;" d="M199.667 160.333L200.333 160.667L199.667 160.333z"/>
<path style="fill:#808086; stroke:none;" d="M456 160L457 161L456 160z"/>
<path style="fill:#7b7c80; stroke:none;" d="M197.667 161.333L198.333 161.667L197.667 161.333z"/>
<path style="fill:#808080; stroke:none;" d="M288 161L289 162L288 161z"/>
<path style="fill:#616266; stroke:none;" d="M195.667 162.333L196.333 162.667L195.667 162.333z"/>
<path style="fill:#5f6064; stroke:none;" d="M190 165L190 166L195 163L190 165z"/>
<path style="fill:#606063; stroke:none;" d="M130 165L130 167L132 167L130 165z"/>
<path style="fill:#aaaaaa; stroke:none;" d="M454 165L455 166L454 165z"/>
<path style="fill:#58595e; stroke:none;" d="M181 173L190 166L181 173z"/>
<path style="fill:#0c0d11; stroke:none;" d="M348 166L351 171L348 173L351 172L352 174L352 175L348 179L353 177L352 180L354 178L355 178L355 190L353 190C351.812 182.384 346.623 184.533 342 181L341 181L341 183L340 183L339 180L330 180L333 175L322 180L324 178L324 177L319 176L320 181L319 181L318 178L317 178L316 181L329 185L330 189L330 192L330 193L325 193L325 190L318 190L325 194L325 199L320 200L321 204L322 204L323 201L325 203L329 202L330 206L326 205L327 209L325 212L328 211L325 213L325 214L328 214L327 216L330 216L330 220L329 220L328 217L330 230L330 231L327 232L327 245C320.967 249.571 320.33 264.836 318 272L323 272L323 273L320 273L320 274C349.255 274 373.653 260.891 396.325 243.536C405.73 236.337 417.9 226.952 423 216C413.749 213.442 398.308 202.656 394 194L379 187L380 184L374 182L376 180L374 178L368 179L368 178L370 177L355 170L354 166L348 166z"/>
<path style="fill:#000000; stroke:none;" d="M187 191L186 191L182 189L182 190L185 191C180.206 197.76 174.774 204.281 171.468 212C159.186 240.674 167.415 269.217 185 293L197 288C197.879 283.872 200.688 280.504 199.682 276C197.348 265.544 188.56 257.589 188.047 246C187.493 233.478 196.042 220.899 191 209L188 210C185.683 206.295 182.439 203.818 178 204L189 193L189 197C196.602 200.161 201.701 202.798 210 202C218.392 192.144 236.904 190.27 249 192.465C256.449 193.816 267.591 201.764 272 192L278 194L278 193L274 191L279 182C287.718 190.35 287.102 195.176 278 204C279.47 217.802 289.316 228.073 289.924 243C290.282 251.778 282.536 263.872 286.013 271.896C288.678 278.046 296.008 279.946 302 280L295 290L304 282L312.985 244L309.48 218L304 203C298.597 198.831 296.482 192.564 289 192L289 191L282 179L276 176L274 175L271 173L268 174L266 171L263 172L256 168C251.361 170.559 242.377 166.988 237 167.361C219.45 168.58 196.224 174.454 187 191z"/>
<path style="fill:#787887; stroke:none;" d="M227 168L228 169L227 168z"/>
<path style="fill:#808080; stroke:none;" d="M221 169L222 170L221 169z"/>
<path style="fill:#606166; stroke:none;" d="M290 169L302 180L290 169z"/>
<path style="fill:#929292; stroke:none;" d="M218 170L219 171L218 170z"/>
<path style="fill:#7b8484; stroke:none;" d="M259 170L260 171L259 170z"/>
<path style="fill:#868686; stroke:none;" d="M452 170L453 171L452 170z"/>
<path style="fill:#bfbfbf; stroke:none;" d="M135 171L136 172L135 171z"/>
<path style="fill:#808080; stroke:none;" d="M263 171L264 172L263 171z"/>
<path style="fill:#868686; stroke:none;" d="M212 172L213 173L212 172z"/>
<path style="fill:#7d7d82; stroke:none;" d="M266 172L267 173L266 172z"/>
<path style="fill:#808080; stroke:none;" d="M451 172L452 173L451 172z"/>
<path style="fill:#626367; stroke:none;" d="M179 173C173.268 180.53 160.458 190.668 162 201L163 201L181 173L179 173z"/>
<path style="fill:#7e7e81; stroke:none;" d="M268.667 173.333L269.333 173.667L268.667 173.333z"/>
<path style="fill:#808085; stroke:none;" d="M271 174L272 175L271 174z"/>
<path style="fill:#798686; stroke:none;" d="M272 175L273 176L272 175z"/>
<path style="fill:#aaaaaa; stroke:none;" d="M449 176L450 177L449 176z"/>
<path style="fill:#a4a4a4; stroke:none;" d="M448 178L449 179L448 178z"/>
<path style="fill:#a2a2a2; stroke:none;" d="M144 179L145 180L144 179z"/>
<path style="fill:#5e5f64; stroke:none;" d="M302 180L305 184L302 180z"/>
<path style="fill:#aaaaaa; stroke:none;" d="M447 180L448 181L447 180z"/>
<path style="fill:#35363b; stroke:none;" d="M178 181C166.936 200.75 155.538 215.884 156.014 240C156.141 246.449 155.85 254.781 160 260L160 261L158 261L158 263C161.443 263.452 160.497 266.115 160 269C164.077 268.122 162.421 264.352 161.583 261C159.646 253.253 157.889 245.016 159 237L160 237L160 240L161 240L160 225L161 225L162 230L163 230L161 222L164 224L162 218L163 218L164 221L165 221L166 216L167 216L167 220L168 220L185 191L178 181z"/>
<path style="fill:#9f9f9f; stroke:none;" d="M278 181L279 182L278 181z"/>
<path style="fill:#606062; stroke:none;" d="M279 182L274 191L278 193L278 194L272 192L268 196L279 207L278 204C281.645 202.075 280.931 198.064 279 195L282 198L283 198L287 192L288 192L279 182z"/>
<path style="fill:#999999; stroke:none;" d="M446 182L447 183L446 182z"/>
<path style="fill:#616267; stroke:none;" d="M305 184L322 228L323 228C322.881 213.637 316.721 193.12 305 184z"/>
<path style="fill:#888888; stroke:none;" d="M152 186L153 187L152 186z"/>
<path style="fill:#808080; stroke:none;" d="M156 190L157 191L156 190z"/>
<path style="fill:#222223; stroke:none;" d="M286 190L284 195L288 193L286 190z"/>
<path style="fill:#606065; stroke:none;" d="M289.667 191.333L290.333 191.667L289.667 191.333z"/>
<path style="fill:#7c7c83; stroke:none;" d="M230 192L231 193L230 192z"/>
<path style="fill:#0d0d0f; stroke:none;" d="M284 284L284 279L280 281C295.146 249.754 291.788 221.836 268 197C261.734 197.716 255.221 193.629 249 192.333C240.254 190.511 226.964 191.577 219 195.167C214.079 197.384 206.315 200.97 202.167 204.167C195.564 209.254 193.758 216.47 191.667 224C186.134 243.916 188.734 257.11 199.667 275C202.317 279.337 204.28 284.696 209.167 287.5C211.275 288.71 214.616 287.971 217 288.667C230.036 292.469 241.607 294.387 255 290.667C264.885 287.921 273.858 276.394 284 284z"/>
<path style="fill:#808080; stroke:none;" d="M249 192L250 193L249 192z"/>
<path style="fill:#626264; stroke:none;" d="M178 204L187 208L195 200L195 199L189 197L189 193L178 204z"/>
<path style="fill:#7b7b80; stroke:none;" d="M225 193L226 194L225 193z"/>
<path style="fill:#616161; stroke:none;" d="M253 193L254 194L253 193z"/>
<path style="fill:#616163; stroke:none;" d="M201 213L205 216C196.174 214.789 193.322 225.914 192.3 233C190.152 247.9 193.387 265.161 205.043 275.561C209.092 279.174 213.388 283.049 219 282C220.87 284.656 222.317 284.716 225 283L225 285L228 282L226 282L228 275L232 280L235 280L236 280L239 274L266 263L266 267L274 266L273 263L279 264L279 262L282 263C288.434 246.413 289.043 229.228 278.211 214C260.252 188.752 219.327 187.422 201 213z"/>
<path style="fill:#7c7c7c; stroke:none;" d="M259 195L260 196L259 195z"/>
<path style="fill:#2c2c2e; stroke:none;" d="M279 195L281 199L282 199L279 195z"/>
<path style="fill:#808080; stroke:none;" d="M216 196L217 197L216 196z"/>
<path style="fill:#5f5f61; stroke:none;" d="M300 196L303 205L307 204L300 196z"/>
<path style="fill:#b9b9b9; stroke:none;" d="M298 197L299 198L298 197z"/>
<path style="fill:#7c7d80; stroke:none;" d="M161 199C154.789 209.682 153 220.84 153 233L154 233L161 199z"/>
<path style="fill:#808089; stroke:none;" d="M211 199L212 200L211 199z"/>
<path style="fill:#28282a; stroke:none;" d="M188 210L189 210L191 204L195 200C190.533 202.102 187.815 204.911 188 210z"/>
<path style="fill:#616163; stroke:none;" d="M195 200L191 204L189 210L194 215L203 203L195 200z"/>
<path style="fill:#858585; stroke:none;" d="M208 201L209 202L208 201z"/>
<path style="fill:#999999; stroke:none;" d="M434 201L435 202L434 201z"/>
<path style="fill:#818184; stroke:none;" d="M204.667 203.333L205.333 203.667L204.667 203.333z"/>
<path style="fill:#2e2f33; stroke:none;" d="M305.667 204.333L306.333 204.667L305.667 204.333z"/>
<path style="fill:#606165; stroke:none;" d="M307 204C304.045 208.413 306.816 215.146 311 218L311 214L312 214L317 235L318 235C319.172 225.678 316.127 218.674 313 210L312 212L311 212L311 207L310 207L309 209L307 204z"/>
<path style="fill:#323235; stroke:none;" d="M304.333 205.667L304.667 206.333L304.333 205.667z"/>
<path style="fill:#828287; stroke:none;" d="M431 205L432 206L431 205z"/>
<path style="fill:#808080; stroke:none;" d="M430 207L431 208L430 207z"/>
<path style="fill:#666666; stroke:none;" d="M280 212L281 213L280 212z"/>
<path style="fill:#828284; stroke:none;" d="M200 216L205 216C203.188 213.495 201.744 213.446 200 216z"/>
<path style="fill:#000000; stroke:none;" d="M216 229L213 230L214 233L213 236C209.531 239.031 210.759 247.084 214 250L216 258L220 263L221 264L223 263C224.94 266.407 227.128 267.446 231 267C233.325 270.172 244.72 270.262 247 267C259.709 267.717 275.165 241.393 264 232L259 221C255.014 219.811 252.141 216.183 248 214.7C237.785 211.042 215.51 214.824 216 229z"/>
<path style="fill:#77777f; stroke:none;" d="M425 213L426 214L425 213z"/>
<path style="fill:#7f7f81; stroke:none;" d="M311 214L310 222L311 222L311 220L312 220L312 235C318.81 239.034 309.973 260.778 309 268L313 269L313 261C321.259 255.44 319 239.737 319 231L318 231L318 235L317 235L311 214z"/>
<path style="fill:#b3b3b3; stroke:none;" d="M193 215L193 218L194 218L193 215z"/>
<path style="fill:#616163; stroke:none;" d="M166 216L165 221L164 221L163 218L162 218L164 224L161 222L164 255L165 255L166 231L167 231L169 218L168 218L168 220L167 220L166 216z"/>
<path style="fill:#858585; stroke:none;" d="M229 216L230 217L229 216z"/>
<path style="fill:#808080; stroke:none;" d="M423 216L424 217L423 216z"/>
<path style="fill:#838383; stroke:none;" d="M283 217L284 218L283 217z"/>
<path style="fill:#828282; stroke:none;" d="M225 218L226 219L225 218z"/>
<path style="fill:#343437; stroke:none;" d="M256 219L258 222L256 219z"/>
<path style="fill:#646465; stroke:none;" d="M311 220L313 227L311 220z"/>
<path style="fill:#808080; stroke:none;" d="M220 222L221 223L220 222z"/>
<path style="fill:#9f9f9f; stroke:none;" d="M219 223L220 224L219 223z"/>
<path style="fill:#666666; stroke:none;" d="M417 223L418 224L417 223z"/>
<path style="fill:#7b7b80; stroke:none;" d="M145.667 224.333L146.333 224.667L145.667 224.333z"/>
<path style="fill:#35363a; stroke:none;" d="M106 236L93 241L97 246L97 244L101 246L103 241L107 242L107 243L103 243L103 244L109 243L103 249L104 249L105 247L108 248L108 249L100 251L109 251L109 252L107 253L114 253L119 258L120 255L121 255C121.003 262.134 110.995 264.697 105 264L105 265L110 268L110 269L106 269L106 270L111 273L106 274L112 282L112 283L111 290L110 290L109 288C109.692 294.137 115.449 289.573 118 287L119 291L116 290L113 292L114 297C121.838 299.152 117.041 308.688 126 310L126 311L124 313L127 314L127 315L120 317L128 321L135 320C135.978 317.842 136.188 317.499 138 319L136 318L136 319L139 320L137 322L136 327L140 327L137 331L142 332L141 330L142 330L142 335L145 336L143 338L143 339L148 339L147 342L150 343L151 343L153 340L152 343L156 343L151 346C153.672 350.06 156.791 347.98 158 344L174 338L192 315C184.009 305.101 173.073 298.772 165.806 287.91C153.546 269.584 153 245.196 153 224C141.157 224.244 113.592 225.681 106 236z"/>
<path style="fill:#b6b6b6; stroke:none;" d="M191 224L192 225L191 224z"/>
<path style="fill:#808080; stroke:none;" d="M416 224L417 225L416 224z"/>
<path style="fill:#a2b9b9; stroke:none;" d="M137 225L138 226L137 225z"/>
<path style="fill:#7f7f81; stroke:none;" d="M160 225C160.546 231.911 158.976 251.677 164 256L164 263L163 263L162 258L161 258L171 284L174 288L180 289L180 290L176 290L176 291L180 291L180 295L181 295L183 292L185 299L188 299L186 297C186.003 291.366 180.749 287.739 178 282.999C172.633 273.747 167.476 263.913 167 253L164 255C163.821 246.322 165.049 232.349 160 225z"/>
<path style="fill:#ffffff; stroke:none;" d="M311 227L312 228L311 227z"/>
<path style="fill:#7d7e82; stroke:none;" d="M322 228L322 245L323 245L322 228z"/>
<path style="fill:#999999; stroke:none;" d="M119 229L120 230L119 229z"/>
<path style="fill:#5e5f63; stroke:none;" d="M159 229L159 233L160 233L159 229z"/>
<path style="fill:#7f7f81; stroke:none;" d="M165 229L165 242L166 242L165 229z"/>
<path style="fill:#929292; stroke:none;" d="M189 229L190 230L189 229z"/>
<path style="fill:#2f2f31; stroke:none;" d="M313 229L313 233L314 233L313 229z"/>
<path style="fill:#a5a5b4; stroke:none;" d="M411 229L412 230L411 229z"/>
<path style="fill:#363638; stroke:none;" d="M164 230L164 234L165 234L164 230z"/>
<path style="fill:#b3b3b3; stroke:none;" d="M166.333 231.667L166.667 232.333L166.333 231.667z"/>
<path style="fill:#5e5f63; stroke:none;" d="M323 231L323 242L324 242L323 231z"/>
<path style="fill:#636468; stroke:none;" d="M153 233L155 258L156 258L153 233z"/>
<path style="fill:#808080; stroke:none;" d="M188 234L189 235L188 234z"/>
<path style="fill:#626264; stroke:none;" d="M313 235L313 245L314 245L315 235L313 235z"/>
<path style="fill:#636365; stroke:none;" d="M161 236L161 240L160 240L160 237L159 237C157.226 246.09 160.288 254.56 163 263L164 263L164 256L162 250L161 236z"/>
<path style="fill:#343539; stroke:none;" d="M191 237L191 246L192 246L191 237z"/>
<path style="fill:#adadaf; stroke:none;" d="M315 237L315 241L316 241L315 237z"/>
<path style="fill:#a7a7a7; stroke:none;" d="M98 238L99 239L98 238z"/>
<path style="fill:#808080; stroke:none;" d="M402 238L403 239L402 238z"/>
<path style="fill:#8e8e8e; stroke:none;" d="M401 239L402 240L401 239z"/>
<path style="fill:#1f2227; stroke:none;" d="M103 241L101 246L97 244L97 246L93 242C83.7793 245.404 71.983 254.246 66 262L90 257L89 262L91 260L95 266L98 267L96 280L103 284L104 290L107 291L107 292L100 295L102 302L103 302L106 299L103 306C105.749 306.284 106.099 307.299 106 310L109 308L110 313L107 312L112 315L111 318L114 316L117 317L116 326L105 324L107 319L102 321L99 320L102 317L92 313L93 310L89 311L88 309L88 308L90 308L90 307L83 308L84 304L79 305L80 301C73.5071 298.115 63.5858 290.06 60 284L55 280L48 280C48 288.782 29.6807 296.973 31 307C27.2056 309.505 25.0659 314.545 25 319L22 324L16 334L17 336C12.6401 339.476 10.6942 348.774 12 354C9.40264 356.348 10.3371 360.618 9.78935 364C8.12442 374.278 10.4357 393.861 20 400C21.0071 410.966 34.3173 412.317 39 420L71 422L67 417L88 411L86 414L99 407L101 408L102 405L118 395L132 380L134 377C138.516 376.303 140.752 374.429 142 370C150.26 368.59 160.912 354.156 166.829 348.025C169.574 345.181 172.097 343.007 172 339L176 335L174 338L158 344C156.168 347.593 154.185 348.927 151 346L156 343L152 343L153 340L151 343L150 343L147 342L148 339L146 341L145 336L142 335L141 330L142 332L141 332L137 331L140 327L136 327L139 320L136 318L138 319C136.583 316.477 135.517 317.542 135 320C131.212 318.737 128.581 318.095 128 321L120 317L127 315L127 314L124 313L126 311L126 310L114 297L113 292L119 291L118 287L110 290L111 290L112 283L112 282L106 274L111 273L106 270L106 269L110 269L110 268L105 265L105 264C110.797 265.222 122.317 262.467 121 255L120 255L119 258L114 253L107 253L109 252L109 251L100 251L108 249L108 248L104 249L103 249L109 243L103 244L103 243L107 243L103 241z"/>
<path style="fill:#aaaaaa; stroke:none;" d="M89 243L90 244L89 243z"/>
<path style="fill:#696969; stroke:none;" d="M396 243L397 244L396 243z"/>
<path style="fill:#262628; stroke:none;" d="M160 245L160 250L161 250L160 245z"/>
<path style="fill:#636365; stroke:none;" d="M322 245L307 285L314 279L313 276L316 275C316.577 265.574 325.812 254.766 322 245z"/>
<path style="fill:#646969; stroke:none;" d="M393 245L394 246L393 245z"/>
<path style="fill:#7d8282; stroke:none;" d="M85 246L86 247L85 246z"/>
<path style="fill:#aaaaaa; stroke:none;" d="M165 247L165 251L166 251L165 247z"/>
<path style="fill:#808080; stroke:none;" d="M82 248L83 249L82 248z"/>
<path style="fill:#3b3b3d; stroke:none;" d="M281 249L281 250L285 250L281 249z"/>
<path style="fill:#808080; stroke:none;" d="M390 248L391 249L390 248z"/>
<path style="fill:#aaaaaa; stroke:none;" d="M79 250L80 251L79 250z"/>
<path style="fill:#b6b6b6; stroke:none;" d="M188 250L189 251L188 250z"/>
<path style="fill:#808080; stroke:none;" d="M289 250L290 251L289 250z"/>
<path style="fill:#38383a; stroke:none;" d="M161 252L161 256L162 256L161 252z"/>
<path style="fill:#333335; stroke:none;" d="M277 256L280 253L277 256z"/>
<path style="fill:#7a7a85; stroke:none;" d="M74 254L75 255L74 254z"/>
<path style="fill:#353537; stroke:none;" d="M280 254L284 256L280 254z"/>
<path style="fill:#888888; stroke:none;" d="M73 255L74 256L73 255z"/>
<path style="fill:#363638; stroke:none;" d="M273 255L273 256L277 257L277 256L273 255z"/>
<path style="fill:#808080; stroke:none;" d="M288 255L289 256L288 255z"/>
<path style="fill:#2a2b2f; stroke:none;" d="M322 255L315 274L323 273L323 272L318 272L322 255z"/>
<path style="fill:#333237; stroke:none;" d="M271 256L267 259L266 260L266 263L272 263L270 262L270 261L271 256z"/>
<path style="fill:#aaaaaa; stroke:none;" d="M70 257L71 258L70 257z"/>
<path style="fill:#0c0d11; stroke:none;" d="M49 280L55 280L54 283L60 284C62.1623 290.022 73.802 299.302 80 301L79 305L84 304L83 308L90 307L88 309L89 311L93 310L92 313L102 317L99 320L102 321L107 319L105 324L116 326L117 317L114 316L111 318L112 315L107 312L110 313L109 308L106 310C106.072 307.077 105.892 306.313 103 306L106 299L103 302L102 302L100 295L107 292L107 291L104 290L103 284L96 280L98 267L95 266C94.3611 262.55 92.473 260.643 89 262L90 257C73.1131 257.14 57.6396 265.174 49 280z"/>
<path style="fill:#808080; stroke:none;" d="M376 257L377 258L376 257z"/>
<path style="fill:#7f8084; stroke:none;" d="M156 258L159 266L156 258z"/>
<path style="fill:#363638; stroke:none;" d="M273 261L279 262L280 260C277.184 258.491 275.031 258.42 273 261z"/>
<path style="fill:#afafb1; stroke:none;" d="M314 260L315 263L314 260z"/>
<path style="fill:#ffffff; stroke:none;" d="M220 261L221 262L220 261z"/>
<path style="fill:#b6b6b6; stroke:none;" d="M286 261L287 262L286 261z"/>
<path style="fill:#777777; stroke:none;" d="M65 262L66 263L65 262z"/>
<path style="fill:#0b0b0d; stroke:none;" d="M159 262L160 267L161 267L159 262z"/>
<path style="fill:#353638; stroke:none;" d="M279 262L279 264L281 264L281 262L279 262z"/>
<path style="fill:#808080; stroke:none;" d="M64 263L65 264L64 263z"/>
<path style="fill:#212528; stroke:none;" d="M242 276L246 275L245 281L242 279L241 279L233 285C235.581 288.869 238.707 288.146 243 288L243 289L238 289L238 290C243.28 289.841 254.807 287.727 256 282C262.143 282.357 265.956 281.74 271 278L269 274L272 276L273 276C277.241 271.514 282.403 264.082 273 263L274 266L266 267L266 263C260.28 263.813 245.001 271.221 242 276z"/>
<path style="fill:#656565; stroke:none;" d="M63 264L64 265L63 264z"/>
<path style="fill:#5d5e60; stroke:none;" d="M279 264L279 267L280 267L281 264L279 264z"/>
<path style="fill:#9f9fbf; stroke:none;" d="M285 265L286 266L285 265z"/>
<path style="fill:#5f6064; stroke:none;" d="M158 266L161 274L162 274L158 266z"/>
<path style="fill:#5a5a5c; stroke:none;" d="M165 266L166 270L167 270L165 266z"/>
<path style="fill:#26272b; stroke:none;" d="M157 267C158.954 282.948 170.388 292.651 179 305C184.687 303.433 188.781 307.498 193 311L190 312L190 314L193 319L194 319L194 313L195 313L210 318L211 315L200 309L202 306L194 306L199 304L199 300L187 294L188 299C178.433 295.191 170.848 288.385 165.09 280C162.266 275.886 161.048 269.968 157 267z"/>
<path style="fill:#808080; stroke:none;" d="M195 268L196 269L195 268z"/>
<path style="fill:#636363; stroke:none;" d="M308 268L307 274L308 274L311 271L308 268z"/>
<path style="fill:#acacae; stroke:none;" d="M310 268L311 271L308 272L308 273C311.065 271.982 311.886 270.761 310 268z"/>
<path style="fill:#0d0e12; stroke:none;" d="M161 269C162.974 277.31 169.147 288.171 177 292L161 269z"/>
<path style="fill:#3d3e40; stroke:none;" d="M163 269L167 276L163 269z"/>
<path style="fill:#38373c; stroke:none;" d="M218 272L221 269L218 272z"/>
<path style="fill:#606062; stroke:none;" d="M284 269L280 281L284 279L284 284L287 281L292 280L290 284L292 283L292 284L290 291L292 292L302 280L290 279L291 276L284 269z"/>
<path style="fill:#868686; stroke:none;" d="M196 270L197 271L196 270z"/>
<path style="fill:#5d5e62; stroke:none;" d="M258 273L263 271L258 273z"/>
<path style="fill:#606165; stroke:none;" d="M262 272L262 273L268 271L262 272z"/>
<path style="fill:#828282; stroke:none;" d="M56 271L57 272L56 271z"/>
<path style="fill:#ffffff; stroke:none;" d="M171 271L172 272L171 271z"/>
<path style="fill:#313133; stroke:none;" d="M211 271L212 274L213 274L213 271L211 271z"/>
<path style="fill:#868686; stroke:none;" d="M55 272L56 273L55 272z"/>
<path style="fill:#999999; stroke:none;" d="M338 272L339 273L338 272z"/>
<path style="fill:#333335; stroke:none;" d="M215 273L215 275L217 275L217 273L215 273z"/>
<path style="fill:#828284; stroke:none;" d="M304 283L311 273C305.488 274.137 303.044 277.414 304 283z"/>
<path style="fill:#818284; stroke:none;" d="M162.333 274.667L162.667 275.333L162.333 274.667z"/>
<path style="fill:#35363a; stroke:none;" d="M239 274L237 276L236 280L235 280L234 278L232 280L228 275L226 282L228 282L225 286L234 287L241 279L242 279L245 281L246 275L239 274z"/>
<path style="fill:#39393b; stroke:none;" d="M235 275L233 276L233 277L235 275z"/>
<path style="fill:#626367; stroke:none;" d="M163 276L164 280L165 280L163 276z"/>
<path style="fill:#aaaaaa; stroke:none;" d="M200 276L200 280L201 280L200 276M314 276L315 277L314 276z"/>
<path style="fill:#7b7b84; stroke:none;" d="M50 277L51 278L50 277z"/>
<path style="fill:#38383a; stroke:none;" d="M220 277L219 282C221.28 280.36 221.5 279.362 220 277z"/>
<path style="fill:#373739; stroke:none;" d="M290 277L290 279L292 279L292 277L290 277z"/>
<path style="fill:#333335; stroke:none;" d="M216 278L217 281L216 278z"/>
<path style="fill:#27282d; stroke:none;" d="M312 279L295 296L294 296L296 290L288 299C291.104 298.274 292.281 298.267 294 301L251 318L251 319L253 319L253 320L247 321L247 320L249 320L249 319L228 321L228 318C222.089 317.697 215.082 313.067 211 319L218 320L218 325L220 327L221 327L223 325L224 325C230.004 333.764 245.937 328.357 253 336C249.997 334.999 247.017 337.931 248 334L242 336L243 333L232 331L235 339L239 338L241 334L240 338L241 340L243 344L238 342C236.622 345.297 235.605 346.61 232 347L231 351L223 349L223 350L226 353L221 352L224 357C220.804 357.441 221.227 359.813 223 362L223 363C220.033 367.34 224.215 373.639 226.283 377.975C231.994 389.95 241.059 406.464 253 413L252 404L252 403L249 405L248 405L244 386L245 386L245 388L246 388L247 383L252 383L250 382L250 381L255 379L256 379L258 384L259 384L259 378L264 381L265 376L269 377L271 370L278 369L281 372C283.676 367.77 287.689 368.723 292 370L291 367L294 371L299 368L302 369L301 365L302 365L303 368L308 367L307 363L308 365L309 365L311 356L315 357L319 352L322 356L319 362L319 363L318 368L319 371L314 372L314 378L311 379L312 383L310 381L309 381L308 386L302 396L299 395L292 409C288.452 409.751 286.753 412.445 287 416L284 415L277 430L276 430L276 428L275 428L278 438L280 437L284 442L286 441L289 445L291 444L297 450L299 449C301.525 452.912 306.46 454.8 311 455L311 457L313 456L313 458C321.365 458.023 333.51 465.223 342 467.786C362.09 473.853 386.303 469.686 403.035 457.491C409.507 452.774 418.059 444.533 418 436C425.087 431.111 421.183 417.318 422 410C416.238 402.382 417.785 388.418 408 383L409 380L405 378L399 367L394 363L380 346L373 338C366.712 333.377 352.221 323.408 350 316L328 300L327 299L328 297L310 288L315 281L314 279L312 279z"/>
<path style="fill:#aaaab0; stroke:none;" d="M314 279L315 280L314 279z"/>
<path style="fill:#616266; stroke:none;" d="M165 280L167 282L167 280L165 280z"/>
<path style="fill:#616163; stroke:none;" d="M200 280L197 288L205 293L205 290L208 290L209 288L200 280z"/>
<path style="fill:#232325; stroke:none;" d="M287 281L284 285L289 290L290 290L292 283L290 284L290 283L292 280L287 281z"/>
<path style="fill:#000000; stroke:none;" d="M207 288L205 290L199 305L207 310C209.51 309.498 212.645 310.421 212 313L233 315.925L263 314L269 312L274 309L282 302L284 303L292 290L276 281.24L247 292.536L207 288z"/>
<path style="fill:#80808f; stroke:none;" d="M278 281L279 282L278 281z"/>
<path style="fill:#7b7b7b; stroke:none;" d="M315 281L316 282L315 281z"/>
<path style="fill:#606165; stroke:none;" d="M167 282L169 285L167 282z"/>
<path style="fill:#333438; stroke:none;" d="M218 282L216 283L216 284L218 282z"/>
<path style="fill:#7d7d80; stroke:none;" d="M282 282L283 283L282 282z"/>
<path style="fill:#5c5c5e; stroke:none;" d="M300 289L301 289L302 284L305 284C301.058 282.109 299.689 285.379 300 289z"/>
<path style="fill:#877887; stroke:none;" d="M45 283L46 284L45 283z"/>
<path style="fill:#aaaaac; stroke:none;" d="M172 283L175 287L172 283z"/>
<path style="fill:#37383c; stroke:none;" d="M302 284L301 289L300 289L298 287L297 291C300.822 290.191 304.33 288.051 302 284z"/>
<path style="fill:#5b5b5d; stroke:none;" d="M314.333 284.667L314.667 285.333L314.333 284.667z"/>
<path style="fill:#67686c; stroke:none;" d="M169 285L172 289L169 285z"/>
<path style="fill:#626267; stroke:none;" d="M265 285L266 286L265 285z"/>
<path style="fill:#58595d; stroke:none;" d="M306 285L305 288L306 285z"/>
<path style="fill:#aaaaaa; stroke:none;" d="M43 286L44 287L43 286z"/>
<path style="fill:#b1b1b1; stroke:none;" d="M196 286L197 287L196 286z"/>
<path style="fill:#29292b; stroke:none;" d="M205.667 286.333L206.333 286.667L205.667 286.333z"/>
<path style="fill:#5e5f63; stroke:none;" d="M310.667 286.333L311.333 286.667L310.667 286.333z"/>
<path style="fill:#b1b1b3; stroke:none;" d="M176 289L176 290L180 290L176 289z"/>
<path style="fill:#636365; stroke:none;" d="M187 293C188.256 294.55 189.39 295.961 191.059 297.119C199.459 302.943 203.074 289.425 195.98 289.191C193.102 289.096 189.745 292.077 187 293z"/>
<path style="fill:#353537; stroke:none;" d="M197 288L199 298L204 292L197 288z"/>
<path style="fill:#929292; stroke:none;" d="M209 288L210 289L209 288z"/>
<path style="fill:#858585; stroke:none;" d="M260 288L261 289L260 288z"/>
<path style="fill:#aaaaaa; stroke:none;" d="M288 288L289 289L288 288z"/>
<path style="fill:#5f6062; stroke:none;" d="M297 288L294 296L295 296L299 291L297 288z"/>
<path style="fill:#0b0c11; stroke:none;" d="M307 288L290.961 304.702L278 314L275 313L245 325L227 324L227 325C228.96 325.653 229.554 326 227 326L227 327C233.423 327.262 255.59 327.369 259 332L260 332L260 328C278.044 325.335 304.007 305.96 309 288L307 288z"/>
<path style="fill:#5f6064; stroke:none;" d="M172 289L175 292L172 289z"/>
<path style="fill:#aaaaaa; stroke:none;" d="M181.667 289.333L182.333 289.667L181.667 289.333z"/>
<path style="fill:#858585; stroke:none;" d="M219 289L220 290L219 289z"/>
<path style="fill:#5e5f63; stroke:none;" d="M303 289L300 293L303 289z"/>
<path style="fill:#ffffff; stroke:none;" d="M318 289L319 290L318 289z"/>
<path style="fill:#b3b3b3; stroke:none;" d="M40 290L41 291L40 290z"/>
<path style="fill:#7a7a85; stroke:none;" d="M255 290L256 291L255 290z"/>
<path style="fill:#0d0e12; stroke:none;" d="M297 295L302 290L297 295z"/>
<path style="fill:#7b7b7b; stroke:none;" d="M319 290L320 291L319 290z"/>
<path style="fill:#808080; stroke:none;" d="M39 291L40 292L39 291z"/>
<path style="fill:#a8a8aa; stroke:none;" d="M178 291L178 293L180 293L180 291L178 291z"/>
<path style="fill:#636368; stroke:none;" d="M251 291L252 292L251 291z"/>
<path style="fill:#a5a5a7; stroke:none;" d="M182 292L184 297L182 292z"/>
<path style="fill:#7b7b7b; stroke:none;" d="M186 292L187 293L186 292z"/>
<path style="fill:#646468; stroke:none;" d="M231.667 292.333L232.333 292.667L231.667 292.333z"/>
<path style="fill:#636363; stroke:none;" d="M244 292L244 293L248 293L244 292z"/>
<path style="fill:#7a7b7d; stroke:none;" d="M291 292L292 293L291 292z"/>
<path style="fill:#646466; stroke:none;" d="M176.333 293.667L176.667 294.333L176.333 293.667z"/>
<path style="fill:#09090b; stroke:none;" d="M186 293L187 294L186 293z"/>
<path style="fill:#7d7e82; stroke:none;" d="M299.333 293.667L299.667 294.333L299.333 293.667z"/>
<path style="fill:#797980; stroke:none;" d="M325 295L326 296L325 295z"/>
<path style="fill:#808080; stroke:none;" d="M36 296L37 297L36 296z"/>
<path style="fill:#26252a; stroke:none;" d="M194.667 296.333L195.333 296.667L194.667 296.333z"/>
<path style="fill:#86878b; stroke:none;" d="M286 303L292 297C288.304 298.07 285.839 298.857 286 303z"/>
<path style="fill:#5d5e62; stroke:none;" d="M180 298L183 300L180 298z"/>
<path style="fill:#111113; stroke:none;" d="M197.667 298.333L198.333 298.667L197.667 298.333z"/>
<path style="fill:#616163; stroke:none;" d="M197 299L199 301C196.921 302.564 199.062 303.264 201 304L201 298L197 299z"/>
<path style="fill:#0c0c0e; stroke:none;" d="M275 310L275 311C281.892 309.667 290.464 304.111 294 298L275 310z"/>
<path style="fill:#a4a4b6; stroke:none;" d="M330 299L331 300L330 299z"/>
<path style="fill:#5f6064; stroke:none;" d="M292.667 300.333L293.333 300.667L292.667 300.333M184 301L186 303L186 301L184 301z"/>
<path style="fill:#a4a4a4; stroke:none;" d="M282 302L283 303L282 302z"/>
<path style="fill:#a8a8aa; stroke:none;" d="M272 310L272 311C277.286 309.474 283.077 306.817 286 302L272 310z"/>
<path style="fill:#0f1014; stroke:none;" d="M180 304L180 305L188 312L193 311C189.66 307.064 185.305 303.792 180 304z"/>
<path style="fill:#606165; stroke:none;" d="M186.667 303.333L187.333 303.667L186.667 303.333z"/>
<path style="fill:#646466; stroke:none;" d="M281 303L281 305L283 303L281 303z"/>
<path style="fill:#5e5f63; stroke:none;" d="M194 306L199 304L194 306z"/>
<path style="fill:#808080; stroke:none;" d="M279 304L280 305L279 304z"/>
<path style="fill:#5c5d61; stroke:none;" d="M286 306L289 304L286 306z"/>
<path style="fill:#616266; stroke:none;" d="M189.667 305.333L190.333 305.667L189.667 305.333z"/>
<path style="fill:#818181; stroke:none;" d="M201 305L202 306L201 305z"/>
<path style="fill:#b4b4b4; stroke:none;" d="M337 305L338 306L337 305z"/>
<path style="fill:#79797b; stroke:none;" d="M201 308L204 308L203 306L201 308z"/>
<path style="fill:#7f8084; stroke:none;" d="M284.667 306.333L285.333 306.667L284.667 306.333z"/>
<path style="fill:#83838a; stroke:none;" d="M338 306L339 307L338 306z"/>
<path style="fill:#5e5f64; stroke:none;" d="M192.667 307.333L193.333 307.667L192.667 307.333z"/>
<path style="fill:#3a3a3c; stroke:none;" d="M274 307L274 309L276 307L274 307z"/>
<path style="fill:#abaaaf; stroke:none;" d="M200 308L200 309L207 312L200 308z"/>
<path style="fill:#818183; stroke:none;" d="M204 308L208 313L204 308z"/>
<path style="fill:#333336; stroke:none;" d="M272 308L270 311L272 308z"/>
<path style="fill:#616161; stroke:none;" d="M208 309L213 312L208 309z"/>
<path style="fill:#818286; stroke:none;" d="M268 310L269 312L266 311L263 312L256 314L257 317L273 312L273 311L268 310z"/>
<path style="fill:#9f9fbf; stroke:none;" d="M26 312L27 313L26 312z"/>
<path style="fill:#636267; stroke:none;" d="M201.667 312.333L202.333 312.667L201.667 312.333z"/>
<path style="fill:#a8a9ad; stroke:none;" d="M208 312L208 313L216 315L216 314L208 312z"/>
<path style="fill:#797980; stroke:none;" d="M214.667 312.333L215.333 312.667L214.667 312.333z"/>
<path style="fill:#38383a; stroke:none;" d="M264.667 312.333L265.333 312.667L264.667 312.333z"/>
<path style="fill:#0c0d11; stroke:none;" d="M207 313L207 314L211 315L209 317L212 318L215 316L215 315L207 313z"/>
<path style="fill:#212327; stroke:none;" d="M214 313L214 314L223 315L214 313z"/>
<path style="fill:#a6a6b3; stroke:none;" d="M25 314L26 315L25 314z"/>
<path style="fill:#85868a; stroke:none;" d="M216 314C218.322 316.829 221.724 316.889 224 314L216 314z"/>
<path style="fill:#828288; stroke:none;" d="M346 314L349 316L346 314z"/>
<path style="fill:#626264; stroke:none;" d="M202 315L208 319L202 315z"/>
<path style="fill:#363636; stroke:none;" d="M227.667 315.333L228.333 315.667L227.667 315.333z"/>
<path style="fill:#7f7f81; stroke:none;" d="M225 316L225 317L230 317L230 318L228 318L228 319L236 319L236 317L225 316z"/>
<path style="fill:#5f5f61; stroke:none;" d="M248 315L248 316L253 317L253 316L248 315z"/>
<path style="fill:#373739; stroke:none;" d="M251 315L251 316L256 316L251 315z"/>
<path style="fill:#aeaeae; stroke:none;" d="M24 316L25 317L24 316z"/>
<path style="fill:#a3a4a8; stroke:none;" d="M221 316L221 317L230 318L221 316z"/>
<path style="fill:#333334; stroke:none;" d="M232 316L232 317L250 317L232 316z"/>
<path style="fill:#acacae; stroke:none;" d="M249 317L249 318L257 317L249 317z"/>
<path style="fill:#828287; stroke:none;" d="M195.667 317.333L196.333 317.667L195.667 317.333z"/>
<path style="fill:#616163; stroke:none;" d="M246 318L246 319L249 319L249 320L247 320L247 321L253 320L246 318z"/>
<path style="fill:#a6a6aa; stroke:none;" d="M349 317L350 318L349 317z"/>
<path style="fill:#616266; stroke:none;" d="M350 317L359 325L350 317z"/>
<path style="fill:#818286; stroke:none;" d="M208 318L216 324L218 320L208 318z"/>
<path style="fill:#ababad; stroke:none;" d="M236 318L236 319L246 319L236 318z"/>
<path style="fill:#0e0d12; stroke:none;" d="M228 319L228 320L237 320L228 319z"/>
<path style="fill:#343436; stroke:none;" d="M189 320L190 322L191 322L192 320L189 320z"/>
<path style="fill:#5e5f63; stroke:none;" d="M228 320L228 321L235 321L228 320z"/>
<path style="fill:#34353a; stroke:none;" d="M217 321C214.578 331.175 215.354 342.787 217.261 353C217.985 356.882 218.277 363.088 223 363C221.44 359.88 220.368 356.092 224 357L221 352L226 353L223 350L223 349L231 351L232 347C235.96 347.399 236.984 345.679 238 342L243 344L241 340C243.334 338.985 241.91 338.579 240 338L241 334L239 338L235 339L232 331L243 333L242 336L248 334L253 336C247.97 327.778 231.254 332.01 224 325L223 325L221 327L220 327L218 325L217 321z"/>
<path style="fill:#808080; stroke:none;" d="M187 324L188 325L187 324z"/>
<path style="fill:#5d5d60; stroke:none;" d="M215 327L215 333L216 333L215 327z"/>
<path style="fill:#ffffff; stroke:none;" d="M183 329L184 330L183 329z"/>
<path style="fill:#718080; stroke:none;" d="M182 330L183 331L182 330z"/>
<path style="fill:#808086; stroke:none;" d="M17 331L18 332L17 331z"/>
<path style="fill:#a5a5a5; stroke:none;" d="M180 332L181 333L180 332z"/>
<path style="fill:#868686; stroke:none;" d="M215 335L215 340L216 340L215 335z"/>
<path style="fill:#adadad; stroke:none;" d="M369 335L370 336L369 335z"/>
<path style="fill:#808080; stroke:none;" d="M14 338L15 339L14 338z"/>
<path style="fill:#aaaaaa; stroke:none;" d="M175 338L176 339L175 338z"/>
<path style="fill:#808087; stroke:none;" d="M174 339L175 340L174 339z"/>
<path style="fill:#5f6062; stroke:none;" d="M372 339L378 346L372 339z"/>
<path style="fill:#808080; stroke:none;" d="M12 345L13 346L12 345z"/>
<path style="fill:#828384; stroke:none;" d="M379 347L382 350L381 346L379 347z"/>
<path style="fill:#88898b; stroke:none;" d="M382 350L383 351L382 350z"/>
<path style="fill:#7e7f81; stroke:none;" d="M383 351L384 352L383 351z"/>
<path style="fill:#0c0d11; stroke:none;" d="M316 352L315 357L311 356L309 365L307 363L308 367L303 368L302 365L301 365L302 369L299 368L294 371L291 367L292 370C288.237 368.229 282.123 366.733 281 372L278 369L271 370L269 377L265 376L264 381L259 378L259 384L258 384L256 379L255 379L250 381L250 382L252 383L247 383L246 388L245 388L245 386L244 386L248 405L249 405L252 403L252 404L250 405L252 407L251 414L276 435L275 428L276 428L276 430L277 430L284 415L287 416L286 413L292 409L299 395L302 396L308 386L309 381L310 381L312 383L311 379L314 378L314 372L316 374L319 371L318 368C320.214 366.45 321.114 365.003 319 363L319 362L322 356L319 352L316 352z"/>
<path style="fill:#848589; stroke:none;" d="M384 352L385 353L384 352z"/>
<path style="fill:#5a5b5f; stroke:none;" d="M156 359L162 353L156 359z"/>
<path style="fill:#646769; stroke:none;" d="M385 353L388 356L385 353z"/>
<path style="fill:#a2a2a2; stroke:none;" d="M218 358L219 359L218 358z"/>
<path style="fill:#5e6262; stroke:none;" d="M9 361L9 366L10 366L9 361z"/>
<path style="fill:#616164; stroke:none;" d="M394 363L397 366L394 363z"/>
<path style="fill:#aeaeae; stroke:none;" d="M220 364L221 365L220 364z"/>
<path style="fill:#b8b8b8; stroke:none;" d="M397 365L398 366L397 365z"/>
<path style="fill:#788787; stroke:none;" d="M221 367L222 368L221 367z"/>
<path style="fill:#636367; stroke:none;" d="M398 368L402 371L398 368z"/>
<path style="fill:#808686; stroke:none;" d="M142.333 370.667L142.667 371.333L142.333 370.667z"/>
<path style="fill:#aaaaaa; stroke:none;" d="M223 371L224 372L223 371z"/>
<path style="fill:#bfbfbf; stroke:none;" d="M9.33333 374.667L9.66667 375.333L9.33333 374.667z"/>
<path style="fill:#5d5e62; stroke:none;" d="M134 378L137 376L134 378z"/>
<path style="fill:#adadb6; stroke:none;" d="M225 376L226 377L225 376z"/>
<path style="fill:#808087; stroke:none;" d="M405 377L407 379L407 377L405 377z"/>
<path style="fill:#7d7d82; stroke:none;" d="M226 378L227 379L226 378z"/>
<path style="fill:#adadb5; stroke:none;" d="M10 380L11 381L10 380z"/>
<path style="fill:#7d7d7d; stroke:none;" d="M227 380L228 381L227 380z"/>
<path style="fill:#828287; stroke:none;" d="M408.667 382.333L409.333 382.667L408.667 382.333z"/>
<path style="fill:#ffffff; stroke:none;" d="M11 385L12 386L11 385z"/>
<path style="fill:#aaaaaa; stroke:none;" d="M125 387L126 388L125 387z"/>
<path style="fill:#88888d; stroke:none;" d="M231 387L232 388L231 387z"/>
<path style="fill:#ffffff; stroke:none;" d="M12 388L13 389L12 388z"/>
<path style="fill:#5d5f61; stroke:none;" d="M413 388L415 391L413 388z"/>
<path style="fill:#aaaaaa; stroke:none;" d="M123 389L124 390L123 389M13 391L14 392L13 391z"/>
<path style="fill:#b6b6b6; stroke:none;" d="M233 391L234 392L233 391z"/>
<path style="fill:#adadad; stroke:none;" d="M415 392L416 393L415 392z"/>
<path style="fill:#808080; stroke:none;" d="M14 393L15 394L14 393z"/>
<path style="fill:#a7a7a7; stroke:none;" d="M416 394L417 395L416 394z"/>
<path style="fill:#a4a4a4; stroke:none;" d="M15 395L16 396L15 395z"/>
<path style="fill:#7b7b7b; stroke:none;" d="M236 395L237 396L236 395z"/>
<path style="fill:#a3aaaa; stroke:none;" d="M16 396L17 397L16 396z"/>
<path style="fill:#aaaaaa; stroke:none;" d="M417 397L418 398L417 397z"/>
<path style="fill:#7a8085; stroke:none;" d="M17 398L18 399L17 398z"/>
<path style="fill:#aaaaaa; stroke:none;" d="M239 399L240 400L239 399M20 403L21 404L20 403z"/>
<path style="fill:#a2a2a2; stroke:none;" d="M243 404L244 405L243 404z"/>
<path style="fill:#7c8383; stroke:none;" d="M420.667 409.333L421.333 409.667L420.667 409.333z"/>
<path style="fill:#848484; stroke:none;" d="M27 410L28 411L27 410z"/>
<path style="fill:#8b8b8b; stroke:none;" d="M95 410L96 411L95 410z"/>
<path style="fill:#36373b; stroke:none;" d="M67 417C71.7335 423.214 81.7191 418.005 87 415L88 411L67 417z"/>
<path style="fill:#b3b3b3; stroke:none;" d="M29 412L30 413L29 412z"/>
<path style="fill:#aaaaaa; stroke:none;" d="M91 412L92 413L91 412M250 412L251 413L250 412z"/>
<path style="fill:#787880; stroke:none;" d="M253 415L254 416L253 415z"/>
<path style="fill:#808080; stroke:none;" d="M35.3333 416.667L35.6667 417.333L35.3333 416.667z"/>
<path style="fill:#5d6666; stroke:none;" d="M37 417L37 419L39 417L37 417z"/>
<path style="fill:#7b7b7b; stroke:none;" d="M255 417L256 418L255 417z"/>
<path style="fill:#aaaaaa; stroke:none;" d="M422 418L422 423L423 423L422 418z"/>
<path style="fill:#aaaab5; stroke:none;" d="M42 420L43 421L42 420z"/>
<path style="fill:#808080; stroke:none;" d="M44 421L45 422L44 421z"/>
<path style="fill:#838383; stroke:none;" d="M261 423L262 424L261 423z"/>
<path style="fill:#808080; stroke:none;" d="M262 424L263 425L262 424z"/>
<path style="fill:#929292; stroke:none;" d="M263 425L264 426L263 425z"/>
<path style="fill:#666666; stroke:none;" d="M269 430L270 431L269 430z"/>
<path style="fill:#6d6d92; stroke:none;" d="M270 431L271 432L270 431z"/>
<path style="fill:#8e8e8e; stroke:none;" d="M420 434L421 435L420 434z"/>
<path style="fill:#afafaf; stroke:none;" d="M277 436L278 437L277 436z"/>
<path style="fill:#808087; stroke:none;" d="M418 438L419 439L418 438z"/>
<path style="fill:#b1b1b1; stroke:none;" d="M417 440L418 441L417 440z"/>
<path style="fill:#808080; stroke:none;" d="M287 443L288 444L287 443z"/>
<path style="fill:#84848e; stroke:none;" d="M414 445L415 446L414 445z"/>
<path style="fill:#808080; stroke:none;" d="M295 448L296 449L295 448z"/>
<path style="fill:#0000ff; stroke:none;" d="M302 452L303 453L302 452z"/>
<path style="fill:#7a857a; stroke:none;" d="M306 454L307 455L306 454z"/>
<path style="fill:#a2a2a2; stroke:none;" d="M308 455L309 456L308 455z"/>
<path style="fill:#7b7b84; stroke:none;" d="M405 455L406 456L405 455z"/>
<path style="fill:#8e8e8e; stroke:none;" d="M404 456L405 457L404 456z"/>
<path style="fill:#aaaaaa; stroke:none;" d="M315 458L316 459L315 458z"/>
<path style="fill:#9f9f9f; stroke:none;" d="M401 458L402 459L401 458z"/>
<path style="fill:#838383; stroke:none;" d="M318 459L319 460L318 459z"/>
<path style="fill:#868686; stroke:none;" d="M395 462L396 463L395 462z"/>
<path style="fill:#a4a4a4; stroke:none;" d="M385 466L386 467L385 466z"/>
<path style="fill:#9999cc; stroke:none;" d="M382 467L383 468L382 467z"/>
<path style="fill:#666666; stroke:none;" d="M349.667 469.333L350.333 469.667L349.667 469.333z"/>
<path style="fill:#ffffff; stroke:none;" d="M357 470L358 471L357 470z"/>
<path style="fill:#80808a; stroke:none;" d="M358 470L358 471L367 471L358 470z"/>
</svg>
