<?xml version="1.0" standalone="no"?>
<!DOCTYPE svg PUBLIC "-//W3C//DTD SVG 20010904//EN"
 "http://www.w3.org/TR/2001/REC-SVG-20010904/DTD/svg10.dtd">
<svg version="1.0" xmlns="http://www.w3.org/2000/svg"
 width="491.000000pt" height="508.000000pt" viewBox="0 0 491.000000 508.000000"
 preserveAspectRatio="xMidYMid meet">

<g transform="translate(0.000000,508.000000) scale(0.100000,-0.100000)"
fill="#000000" stroke="none">
<path d="M1060 4929 c-81 -8 -134 -22 -202 -53 -51 -22 -168 -103 -168 -115 0
-3 -12 -19 -26 -36 -27 -30 -59 -93 -56 -107 1 -5 -3 -8 -9 -8 -6 0 -9 -6 -6
-14 3 -7 0 -19 -6 -25 -17 -17 -13 -188 6 -252 32 -107 166 -342 204 -356 7
-3 11 -9 8 -13 -3 -5 7 -18 21 -29 15 -12 23 -21 19 -21 -38 0 666 -692 777
-763 15 -10 14 -15 -9 -66 -37 -82 -72 -184 -67 -193 11 -17 -25 -36 -82 -43
-368 -43 -657 -204 -950 -527 -71 -79 -216 -293 -267 -395 -105 -207 -148
-357 -148 -511 0 -181 43 -284 171 -412 70 -70 96 -90 146 -108 97 -35 225
-34 334 3 155 54 300 142 452 276 186 163 455 431 616 611 62 69 118 128 125
130 18 7 130 2 155 -6 12 -4 22 -12 22 -17 0 -6 4 -8 8 -5 19 12 31 -45 36
-169 2 -71 12 -157 21 -190 36 -135 117 -303 200 -413 76 -101 270 -297 363
-365 185 -137 404 -251 581 -303 47 -13 104 -30 126 -37 23 -7 96 -12 175 -12
130 1 139 2 232 37 54 20 121 53 149 74 65 47 139 136 175 211 27 54 29 67 29
173 0 98 -3 124 -24 175 -60 149 -144 285 -228 370 -18 18 -33 35 -33 39 0 4
-20 25 -45 48 -24 22 -43 44 -42 48 4 14 -416 420 -533 515 -25 20 -65 53 -89
73 -24 21 -51 42 -59 48 -9 6 -16 31 -17 60 -5 79 -1 84 60 84 264 0 595 148
834 373 332 312 585 776 616 1127 8 86 -8 238 -31 307 -47 137 -166 273 -277
314 -80 30 -78 30 -177 32 -94 1 -151 -14 -260 -68 -72 -36 -176 -102 -230
-147 -19 -16 -40 -32 -45 -36 -100 -71 -486 -462 -625 -632 -98 -122 -144
-170 -159 -170 -19 0 -71 22 -71 30 0 3 -29 19 -63 35 l-64 29 -12 75 c-16 97
-80 273 -137 376 -141 259 -386 513 -657 683 -54 34 -102 62 -106 62 -5 0 -19
8 -32 18 -45 34 -274 129 -374 155 -114 29 -182 36 -275 26z m1440 -1533 c127
-16 262 -71 286 -117 12 -25 11 -30 -13 -65 -14 -22 -31 -42 -37 -46 -6 -4 -8
-8 -4 -8 4 0 -5 -12 -20 -28 -31 -31 -40 -31 -177 8 -143 40 -308 16 -428 -64
-50 -33 -69 -38 -92 -25 -5 4 -22 9 -36 13 -41 9 -99 72 -99 106 0 50 108 130
260 194 83 34 233 48 360 32z m550 -147 c15 -28 5 -23 -15 7 -9 15 -12 23 -6
20 6 -4 16 -16 21 -27z m-1350 -33 c0 -2 -8 -10 -17 -17 -16 -13 -17 -12 -4 4
13 16 21 21 21 13z m1220 -52 c24 -5 42 -21 74 -65 24 -32 46 -56 50 -52 4 4
4 0 0 -10 -3 -9 -2 -17 4 -17 5 0 12 -10 15 -22 3 -13 17 -52 31 -88 l26 -65
-6 50 c-3 27 -3 47 0 44 6 -6 14 -44 15 -74 1 -16 3 -17 11 -5 7 12 9 10 7 -8
-1 -14 -6 -21 -15 -17 -13 5 -12 -16 3 -100 2 -11 4 -24 4 -28 1 -5 5 -6 10
-3 5 3 11 -6 14 -20 3 -19 1 -24 -10 -20 -8 3 -11 1 -8 -4 3 -6 0 -10 -7 -10
-10 0 -10 -2 1 -9 8 -5 9 -11 3 -15 -5 -3 -9 -20 -8 -38 2 -18 -1 -43 -5 -55
-6 -17 -5 -23 5 -23 10 0 12 7 8 22 -3 14 -2 19 6 14 14 -8 16 6 4 20 -5 5 -1
16 9 26 17 16 18 15 14 -15 -8 -60 -27 -127 -36 -127 -5 0 -8 -3 -8 -7 5 -28
-2 -53 -13 -47 -7 4 -8 3 -4 -4 11 -19 -23 -75 -41 -68 -12 5 -13 3 -5 -7 9
-10 7 -19 -4 -36 -15 -21 -17 -21 -30 -4 -8 11 -13 13 -14 6 0 -18 -34 -16
-78 4 -20 9 -40 15 -44 15 -5 -1 -8 4 -8 11 0 6 -12 23 -26 36 -18 17 -24 31
-20 45 37 128 56 217 56 258 0 87 -29 187 -77 267 -34 56 -43 81 -39 100 4 14
8 32 9 39 2 7 9 18 15 24 7 7 12 17 12 22 0 10 50 63 61 65 4 1 21 -2 39 -5z
m-355 -64 c3 -6 -1 -7 -9 -4 -18 7 -21 14 -7 14 6 0 13 -4 16 -10z m-429 -52
c4 -7 4 -10 -1 -6 -4 4 -15 2 -24 -5 -14 -11 -14 -10 -2 6 16 20 18 21 27 5z
m-314 -12 c4 -6 14 -4 25 5 16 12 17 12 6 -2 -13 -16 -8 -29 9 -29 5 0 6 5 2
12 -4 7 -3 8 4 4 6 -4 8 -14 5 -22 -5 -13 -1 -15 18 -9 17 4 20 3 10 -3 -11
-8 -8 -13 13 -27 14 -10 26 -25 26 -35 0 -10 -14 -62 -31 -116 -28 -89 -30
-108 -25 -187 2 -49 9 -94 14 -100 5 -7 16 -32 25 -57 9 -25 33 -70 52 -100
40 -62 44 -97 15 -128 -23 -24 -26 -37 -7 -26 6 4 9 4 5 0 -3 -4 -10 -8 -15
-8 -15 -1 -34 -38 -27 -51 4 -6 4 -9 0 -5 -4 3 -21 2 -38 -3 -25 -7 -37 -4
-62 13 -17 12 -38 30 -47 41 -15 19 -16 19 -23 1 -4 -10 -4 -15 0 -11 11 10
34 -12 28 -28 -3 -7 0 -16 7 -21 9 -5 10 -2 5 12 -6 16 -3 15 18 -5 28 -26 26
-61 -3 -39 -22 18 -46 51 -43 60 1 5 -4 7 -11 5 -7 -1 -11 7 -10 21 3 23 -12
31 -19 10 -2 -6 -16 10 -32 35 -15 26 -24 52 -21 57 3 6 1 10 -5 10 -10 0 -60
98 -60 117 0 13 29 -32 30 -45 0 -7 7 -20 15 -28 13 -14 15 -13 15 3 0 15 2
16 11 3 8 -11 9 -9 3 10 -10 38 -26 61 -18 28 4 -19 2 -28 -7 -28 -7 0 -10 3
-6 6 3 4 0 19 -9 35 -8 16 -12 29 -9 29 3 0 -1 12 -8 28 -10 18 -11 34 -6 47
9 20 9 20 6 0 -2 -11 3 -27 11 -34 12 -12 13 -11 8 5 -16 55 -22 190 -12 274
7 51 34 147 56 197 31 71 88 111 112 79z m295 -38 c-3 -8 -6 -5 -6 6 -1 11 2
17 5 13 3 -3 4 -12 1 -19z m-42 -16 c-3 -3 -11 0 -18 7 -9 10 -8 11 6 5 10 -3
15 -9 12 -12z m1019 -8 c3 -8 2 -12 -4 -9 -6 3 -10 10 -10 16 0 14 7 11 14 -7z
m-1043 -11 c13 -16 12 -17 -3 -4 -10 7 -18 15 -18 17 0 8 8 3 21 -13z m-30
-36 c-10 -9 -11 -8 -5 6 3 10 9 15 12 12 3 -3 0 -11 -7 -18z m469 -12 c23 -8
46 -12 51 -9 5 3 9 2 7 -3 -1 -4 19 -29 45 -56 26 -26 47 -54 47 -62 0 -8 4
-15 10 -15 5 0 7 -7 4 -15 -4 -8 -2 -15 3 -15 4 0 8 -34 8 -75 0 -41 -3 -75
-7 -75 -6 0 -20 -48 -19 -67 0 -5 -9 -18 -21 -30 -12 -12 -17 -27 -13 -34 5
-7 4 -10 -3 -5 -6 3 -13 2 -17 -4 -4 -6 -10 -8 -15 -5 -12 7 -33 -22 -25 -36
6 -8 2 -8 -14 0 -11 7 -21 8 -21 4 0 -4 -12 -9 -26 -10 -15 0 -29 -5 -33 -10
-3 -4 -13 -8 -21 -9 -8 -1 -26 -4 -40 -8 -16 -5 -20 -4 -12 2 9 6 -1 11 -34
16 -26 3 -66 17 -89 31 -23 13 -44 23 -46 22 -2 -1 -3 0 -2 2 2 2 -10 15 -25
29 -15 14 -26 27 -24 29 6 8 1 23 -7 18 -5 -3 -13 0 -17 6 -5 8 -3 9 6 4 10
-6 11 -4 6 11 -5 10 -11 27 -14 37 -2 10 -8 14 -11 9 -3 -6 -5 24 -3 66 6 117
56 198 154 246 61 31 150 35 218 11z m-480 -19 c0 -2 -9 -6 -20 -9 -11 -3 -18
-1 -14 4 5 9 34 13 34 5z m1207 -48 c-3 -8 -6 -5 -6 6 -1 11 2 17 5 13 3 -3 4
-12 1 -19z m-1053 3 c3 -5 -2 -15 -12 -22 -15 -12 -16 -12 -5 2 7 9 10 19 6
22 -3 4 -4 7 0 7 3 0 8 -4 11 -9z m-169 -21 c-3 -5 -13 -6 -21 -3 -9 3 -20 0
-25 -8 -6 -10 -9 -11 -9 -1 0 7 10 16 23 21 24 9 40 5 32 -9z m1155 -43 c0
-18 2 -20 11 -7 9 13 10 12 5 -2 -7 -24 4 -54 14 -37 5 6 7 -15 6 -47 -1 -59
-26 -118 -41 -95 -9 15 3 31 23 32 12 0 13 2 3 6 -10 4 -10 7 -1 13 7 5 9 20
5 43 -4 20 -11 34 -16 31 -5 -3 -6 2 -3 10 4 10 1 16 -7 16 -7 0 -10 3 -7 6 4
3 2 19 -2 35 -5 18 -5 27 1 24 5 -4 9 -16 9 -28z m-1613 -29 c-3 -8 -6 -5 -6
6 -1 11 2 17 5 13 3 -3 4 -12 1 -19z m493 -8 c0 -5 -5 -10 -11 -10 -5 0 -7 5
-4 10 3 6 8 10 11 10 2 0 4 -4 4 -10z m59 -19 c9 -16 8 -18 -11 -13 -16 4 -19
2 -13 -8 5 -9 4 -11 -4 -6 -6 4 -9 11 -6 16 3 4 -1 11 -7 14 -7 3 -2 3 11 0
16 -4 21 -3 17 5 -4 6 -5 11 -2 11 3 0 10 -9 15 -19z m1138 -13 c-3 -8 -6 -5
-6 6 -1 11 2 17 5 13 3 -3 4 -12 1 -19z m-1594 -8 c3 -11 2 -22 -2 -24 -4 -3
-8 6 -9 20 -2 29 4 31 11 4z m357 -20 c-6 -11 -13 -20 -16 -20 -2 0 0 9 6 20
6 11 13 20 16 20 2 0 0 -9 -6 -20z m1237 -22 c-3 -8 -6 -5 -6 6 -1 11 2 17 5
13 3 -3 4 -12 1 -19z m-1152 -26 c-3 -3 -11 0 -18 7 -9 10 -8 11 6 5 10 -3 15
-9 12 -12z m-15 -16 c0 -2 -8 -10 -17 -17 -16 -13 -17 -12 -4 4 13 16 21 21
21 13z m-431 -30 c9 -11 9 -16 -1 -22 -7 -4 -10 -4 -6 1 4 4 3 14 -3 22 -6 7
-9 13 -6 13 2 0 10 -6 16 -14z m388 -1 c0 -8 -4 -12 -9 -9 -5 3 -6 10 -3 15 9
13 12 11 12 -6z m-377 -45 c0 -5 -2 -10 -4 -10 -3 0 -8 5 -11 10 -3 6 -1 10 4
10 6 0 11 -4 11 -10z m312 -42 c-8 -8 -9 -4 -5 13 4 13 8 18 11 10 2 -7 -1
-18 -6 -23z m-322 -48 c6 -11 8 -20 6 -20 -3 0 -10 9 -16 20 -6 11 -8 20 -6
20 3 0 10 -9 16 -20z m-46 -26 c3 -8 2 -12 -4 -9 -6 3 -10 10 -10 16 0 14 7
11 14 -7z m1539 -129 c-3 -9 -8 -14 -10 -11 -3 3 -2 9 2 15 9 16 15 13 8 -4z
m-307 -45 c15 -6 40 -24 55 -40 15 -15 30 -26 33 -23 5 5 1 -30 -9 -74 -9 -40
-149 -131 -265 -173 -30 -10 -46 -20 -35 -20 26 -2 -36 -25 -89 -33 -54 -9
-33 11 25 23 38 8 36 8 -21 3 -35 -3 -93 -5 -127 -5 -35 0 -63 -5 -63 -10 0
-5 4 -7 9 -3 5 3 12 1 16 -5 4 -6 -14 -8 -52 -4 -74 8 -103 23 -48 25 22 1 31
3 20 6 -98 21 -154 37 -175 50 -24 15 -24 15 -9 -2 9 -9 41 -25 70 -35 30 -10
48 -19 41 -19 -18 -1 -152 47 -169 60 -9 8 -10 14 -3 19 6 4 3 14 -9 27 -31
32 -6 94 62 155 33 29 51 29 132 3 169 -55 322 -38 462 49 60 38 100 44 149
26z m158 -35 c-14 -19 -29 -35 -31 -35 -5 0 7 18 36 53 26 31 23 18 -5 -18z
m86 -19 c0 -2 -8 -10 -17 -17 -16 -13 -17 -12 -4 4 13 16 21 21 21 13z m-80
-89 c0 -2 -10 -12 -22 -23 l-23 -19 19 23 c18 21 26 27 26 19z m-90 -38 c-56
-49 -159 -114 -167 -105 -2 2 20 17 49 34 29 16 71 46 93 66 22 19 45 35 50
35 6 0 -6 -14 -25 -30z m-180 -114 c0 -6 -70 -35 -84 -34 -6 0 9 9 34 19 53
22 50 21 50 15z m-272 -72 c-16 -2 -40 -2 -55 0 -16 2 -3 4 27 4 30 0 43 -2
28 -4z"/>
<path d="M3120 2496 c0 -2 7 -7 16 -10 8 -3 12 -2 9 4 -6 10 -25 14 -25 6z"/>
<path d="M3106 2434 c-8 -22 -4 -25 11 -9 7 8 9 16 4 19 -5 3 -12 -1 -15 -10z"/>
<path d="M3086 2385 c-9 -26 -7 -32 5 -12 6 10 9 21 6 23 -2 3 -7 -2 -11 -11z"/>
<path d="M3045 2299 c-4 -6 -5 -12 -2 -15 2 -3 7 2 10 11 7 17 1 20 -8 4z"/>
<path d="M1666 2445 c-3 -8 -1 -15 4 -15 6 0 10 7 10 15 0 8 -2 15 -4 15 -2 0
-6 -7 -10 -15z"/>
<path d="M1712 2308 c-16 -16 -15 -29 2 -22 15 6 30 -12 31 -35 0 -8 8 -15 17
-17 14 -2 13 5 -9 39 -14 23 -27 43 -28 44 -1 2 -7 -3 -13 -9z"/>
<path d="M1715 2270 c-3 -5 -1 -10 4 -10 6 0 11 5 11 10 0 6 -2 10 -4 10 -3 0
-8 -4 -11 -10z"/>
</g>
</svg>
