<?xml version="1.0" standalone="no"?>
<!DOCTYPE svg PUBLIC "-//W3C//DTD SVG 20010904//EN"
 "http://www.w3.org/TR/2001/REC-SVG-20010904/DTD/svg10.dtd">
<svg version="1.0" xmlns="http://www.w3.org/2000/svg"
 width="360.000000pt" height="360.000000pt" viewBox="0 0 360.000000 360.000000"
 preserveAspectRatio="xMidYMid meet">

<g transform="translate(0.000000,360.000000) scale(0.100000,-0.100000)"
fill="#000000" stroke="none">
<path d="M1664 3569 c-235 -21 -430 -104 -554 -235 -222 -235 -145 -618 212
-1049 54 -66 78 -102 72 -110 -41 -53 -96 -145 -110 -183 -10 -26 -19 -48 -20
-50 -5 -8 -86 41 -150 91 -77 60 -125 114 -231 258 -39 52 -90 112 -115 132
-139 114 -316 127 -463 33 -68 -44 -115 -101 -169 -205 -78 -153 -116 -312
-116 -492 0 -345 140 -633 358 -737 77 -37 78 -37 207 -36 119 0 138 3 222 32
170 58 334 156 511 305 l93 78 41 -37 c22 -20 75 -52 117 -72 42 -19 77 -37
79 -38 8 -6 -43 -89 -96 -155 -58 -73 -127 -135 -269 -238 -117 -85 -171 -159
-199 -274 -42 -168 51 -349 228 -443 180 -96 317 -129 538 -127 133 0 169 4
252 26 173 46 288 107 383 205 234 239 149 634 -234 1087 -28 33 -51 64 -51
68 0 5 15 27 34 49 19 22 49 73 68 114 18 41 38 74 44 74 22 0 139 -84 202
-144 35 -33 101 -110 146 -171 46 -60 104 -130 130 -153 122 -112 297 -136
438 -60 269 143 399 669 264 1065 -100 295 -293 448 -540 430 -226 -17 -461
-136 -749 -380 l-45 -38 -49 37 c-48 37 -157 94 -180 94 -22 0 -14 25 28 90
59 92 148 181 274 275 132 99 187 156 225 237 36 76 46 148 30 224 -39 190
-200 322 -480 394 -67 17 -112 23 -245 34 -22 2 -81 0 -131 -5z m250 -1583
c51 -30 91 -85 106 -148 10 -38 9 -56 -4 -102 -31 -104 -111 -166 -216 -166
-105 0 -185 62 -216 166 -13 46 -14 64 -4 102 20 83 79 147 158 173 45 14 129
3 176 -25z"/>
</g>
</svg>
